<?xml version="1.0" standalone="no"?>
<!DOCTYPE svg PUBLIC "-//W3C//DTD SVG 20010904//EN"
 "http://www.w3.org/TR/2001/REC-SVG-20010904/DTD/svg10.dtd">
<svg version="1.0" xmlns="http://www.w3.org/2000/svg"
 width="422.000000pt" height="422.000000pt" viewBox="0 0 422.000000 422.000000"
 preserveAspectRatio="xMidYMid meet">

<g transform="translate(0.000000,422.000000) scale(0.100000,-0.100000)"
fill="#000000" stroke="none">
<path d="M2165 3329 c-53 -15 -92 -67 -125 -164 -16 -48 -28 -90 -27 -92 2 -1
25 35 51 82 68 122 75 125 240 125 80 0 145 -5 160 -11 26 -12 52 -46 104
-139 18 -30 32 -52 32 -48 0 20 -62 184 -77 201 -38 43 -90 57 -213 56 -63 0
-129 -5 -145 -10z"/>
<path d="M2820 3060 c-27 -4 -35 -8 -20 -9 14 -1 82 -6 151 -10 184 -13 259
-53 316 -169 l28 -57 3 -457 c3 -451 3 -458 -19 -508 -26 -61 -110 -141 -171
-164 l-43 -16 45 5 c86 11 181 90 223 184 26 59 36 215 36 611 1 319 -5 373
-53 448 -32 51 -89 100 -150 128 -46 21 -64 24 -176 22 -69 0 -145 -4 -170 -8z"/>
<path d="M1510 3046 c-94 -20 -158 -65 -201 -140 -31 -54 -37 -94 -17 -114 8
-8 64 -12 184 -12 l172 0 41 53 c22 30 63 74 91 99 27 25 50 53 50 62 0 9 -11
28 -25 41 -23 24 -30 25 -132 24 -59 0 -133 -6 -163 -13z"/>
<path d="M2165 3010 c-171 -37 -346 -160 -433 -304 -45 -73 -83 -187 -90 -262
-4 -60 -4 -63 29 -93 19 -17 37 -31 40 -31 3 0 9 37 12 83 24 353 366 604 706
518 416 -105 580 -587 315 -924 -56 -72 -162 -147 -253 -177 -39 -14 -71 -27
-71 -30 0 -3 18 -18 40 -33 l39 -28 53 22 c111 47 196 113 265 203 161 214
185 465 67 705 -77 156 -221 280 -384 332 -73 23 -266 34 -335 19z"/>
<path d="M883 2902 c10 -11 20 -27 21 -36 3 -23 31 -44 551 -436 581 -438
1140 -858 1562 -1177 178 -134 327 -243 332 -243 5 0 14 6 20 14 10 12 -2 25
-66 73 -140 106 -598 452 -1093 824 -267 201 -667 503 -890 671 -223 168 -417
311 -430 318 -25 13 -25 13 -7 -8z"/>
<path d="M2916 2807 c57 -77 96 -153 130 -254 22 -64 27 -98 28 -188 1 -125
-12 -187 -59 -291 -45 -98 -106 -187 -186 -266 -37 -38 -66 -68 -65 -68 12 0
109 38 136 53 102 56 200 158 252 262 45 89 61 162 61 275 0 88 -4 118 -27
185 -53 155 -167 290 -288 343 -26 11 -24 7 18 -51z"/>
<path d="M2357 2786 c138 -35 265 -134 332 -258 32 -61 33 -62 26 -23 -26 148
-184 282 -343 291 l-67 4 52 -14z"/>
<path d="M1947 2635 c-81 -83 -128 -229 -113 -348 8 -62 19 -76 91 -127 l40
-28 -34 70 c-30 59 -36 82 -39 156 -5 103 12 171 63 256 18 31 32 56 30 56 -2
0 -19 -16 -38 -35z"/>
<path d="M2031 2614 c-201 -217 -81 -565 210 -614 116 -20 218 11 306 93 44
41 93 107 93 126 0 5 -19 -1 -42 -14 -139 -76 -315 -47 -431 71 -67 67 -99
141 -105 236 -3 44 0 90 7 109 6 18 9 34 8 36 -2 2 -23 -17 -46 -43z"/>
<path d="M1406 2551 c65 -49 120 -88 122 -86 2 2 10 31 18 65 13 56 13 65 -1
86 -15 23 -20 24 -137 24 l-121 0 119 -89z"/>
<path d="M2622 2085 c-24 -25 -76 -61 -119 -82 -74 -37 -80 -38 -182 -38 -58
0 -117 4 -131 8 l-25 8 25 -20 c86 -71 94 -74 166 -62 87 16 175 61 233 120
38 38 91 112 79 110 -2 0 -22 -20 -46 -44z"/>
<path d="M1900 1820 c0 -136 1 -140 21 -140 20 0 21 4 15 46 -3 26 -6 89 -6
140 0 77 -3 94 -15 94 -13 0 -15 -22 -15 -140z"/>
<path d="M1460 1897 l0 -52 -45 3 c-39 4 -48 0 -76 -27 -28 -29 -31 -37 -26
-74 9 -70 63 -95 127 -62 17 9 30 11 30 5 0 -5 7 -10 15 -10 12 0 15 13 15 58
0 115 -12 212 -26 212 -10 0 -14 -15 -14 -53z m-2 -128 c3 -54 2 -57 -27 -69
-45 -18 -81 7 -81 55 0 47 30 77 73 73 31 -3 32 -4 35 -59z"/>
<path d="M1577 1934 c-14 -15 -6 -34 14 -34 14 0 19 5 17 17 -3 18 -20 27 -31
17z"/>
<path d="M710 1856 c0 -116 11 -196 26 -196 10 0 14 16 14 59 0 36 5 63 12 67
7 5 33 -16 68 -54 38 -42 63 -62 79 -62 20 0 14 10 -46 76 l-68 77 60 53 c49
44 56 54 38 54 -13 0 -47 -23 -82 -56 l-61 -56 0 56 c0 49 -2 56 -20 56 -18 0
-20 -7 -20 -74z"/>
<path d="M1580 1770 c0 -73 3 -90 15 -90 12 0 15 17 15 90 0 73 -3 90 -15 90
-12 0 -15 -17 -15 -90z"/>
<path d="M1703 1853 c-7 -2 -13 -11 -13 -19 0 -11 4 -12 19 -4 40 21 91 6 91
-26 0 -7 -19 -15 -42 -19 -24 -4 -53 -13 -65 -21 -25 -16 -30 -53 -11 -72 16
-16 70 -15 94 2 17 13 21 12 37 -1 16 -15 17 -12 17 65 0 70 -3 83 -19 92 -20
10 -86 12 -108 3z m97 -107 c0 -17 -9 -27 -31 -36 -55 -23 -91 21 -39 47 42
21 70 17 70 -11z"/>
<path d="M963 1824 c-22 -22 -25 -32 -20 -72 6 -55 33 -82 84 -82 40 0 88 22
97 45 14 37 6 86 -19 110 -35 36 -106 35 -142 -1z m114 -6 c26 -33 20 -101
-10 -120 -20 -13 -55 -9 -71 8 -23 22 -21 100 2 113 24 14 68 13 79 -1z"/>
<path d="M1182 1763 c3 -73 6 -88 20 -91 14 -3 18 7 20 65 3 67 3 68 36 78 17
5 32 15 32 22 0 18 -21 16 -49 -3 -22 -16 -24 -16 -33 0 -20 36 -29 14 -26
-71z"/>
<path d="M2041 1381 c-11 -7 -7 -10 14 -13 40 -4 41 -20 6 -61 -17 -19 -31
-37 -31 -41 0 -3 17 -5 38 -5 30 2 32 3 9 6 l-28 4 26 30 c30 36 32 65 6 79
-23 12 -22 12 -40 1z"/>
<path d="M2134 1364 c-34 -51 9 -129 51 -94 23 19 20 97 -4 110 -27 14 -28 13
-47 -16z m56 -39 c0 -34 -22 -61 -40 -50 -14 9 -13 78 2 93 18 18 38 -5 38
-43z"/>
<path d="M2315 1377 c-27 -21 -13 -67 20 -67 40 0 26 -32 -20 -43 -16 -4 -15
-5 6 -6 47 -2 73 60 45 104 -19 29 -25 30 -51 12z m45 -33 c0 -17 -6 -24 -19
-24 -23 0 -35 28 -20 46 15 19 39 6 39 -22z"/>
<path d="M2230 1369 c-13 -9 -12 -10 3 -5 15 5 17 -2 17 -49 0 -30 5 -55 10
-55 6 0 10 27 10 60 0 62 -8 72 -40 49z"/>
<path d="M1992 1350 c0 -14 2 -19 5 -12 2 6 2 18 0 25 -3 6 -5 1 -5 -13z"/>
<path d="M1920 1354 c0 -17 27 -37 42 -31 8 4 7 6 -4 6 -9 1 -22 9 -27 19 -6
9 -11 12 -11 6z"/>
</g>
</svg>
